<svg width="16" height="17" viewBox="0 0 16 17" fill="none" xmlns="http://www.w3.org/2000/svg">
<path d="M7.71439 10.75C5.07266 10.75 2.72339 12.0255 1.22772 14.005C0.905814 14.431 0.74486 14.644 0.750125 14.9319C0.754193 15.1543 0.893861 15.4349 1.06887 15.5722C1.29538 15.75 1.60928 15.75 2.23709 15.75H13.1917C13.8195 15.75 14.1334 15.75 14.3599 15.5722C14.5349 15.4349 14.6746 15.1543 14.6787 14.9319C14.6839 14.644 14.523 14.431 14.2011 14.005C12.7054 12.0255 10.3561 10.75 7.71439 10.75Z" fill="#84ADFF"/>
<path d="M7.71439 8.25C9.78546 8.25 11.4644 6.57107 11.4644 4.5C11.4644 2.42893 9.78546 0.75 7.71439 0.75C5.64333 0.75 3.96439 2.42893 3.96439 4.5C3.96439 6.57107 5.64333 8.25 7.71439 8.25Z" fill="#84ADFF"/>
<path d="M7.71439 10.75C5.07266 10.75 2.72339 12.0255 1.22772 14.005C0.905814 14.431 0.74486 14.644 0.750125 14.9319C0.754193 15.1543 0.893861 15.4349 1.06887 15.5722C1.29538 15.75 1.60928 15.75 2.23709 15.75H13.1917C13.8195 15.75 14.1334 15.75 14.3599 15.5722C14.5349 15.4349 14.6746 15.1543 14.6787 14.9319C14.6839 14.644 14.523 14.431 14.2011 14.005C12.7054 12.0255 10.3561 10.75 7.71439 10.75Z" stroke="#528BFF" stroke-width="1.5" stroke-linecap="round" stroke-linejoin="round"/>
<path d="M7.71439 8.25C9.78546 8.25 11.4644 6.57107 11.4644 4.5C11.4644 2.42893 9.78546 0.75 7.71439 0.75C5.64333 0.75 3.96439 2.42893 3.96439 4.5C3.96439 6.57107 5.64333 8.25 7.71439 8.25Z" stroke="#528BFF" stroke-width="1.5" stroke-linecap="round" stroke-linejoin="round"/>
</svg>
