<svg width="19" height="17" viewBox="0 0 19 17" fill="none" xmlns="http://www.w3.org/2000/svg">
<path d="M0.75 6.75C0.75 5.81658 0.75 5.34987 0.931656 4.99335C1.09144 4.67975 1.34641 4.42478 1.66002 4.26499C2.01654 4.08333 2.48325 4.08333 3.41667 4.08333H14.75C15.6834 4.08333 16.1501 4.08333 16.5067 4.26499C16.8203 4.42478 17.0752 4.67975 17.235 4.99335C17.4167 5.34987 17.4167 5.81658 17.4167 6.75V13.0833C17.4167 14.0168 17.4167 14.4835 17.235 14.84C17.0752 15.1536 16.8203 15.4086 16.5067 15.5683C16.1501 15.75 15.6834 15.75 14.75 15.75H3.41667C2.48325 15.75 2.01654 15.75 1.66002 15.5683C1.34641 15.4086 1.09144 15.1536 0.931656 14.84C0.75 14.4835 0.75 14.0168 0.75 13.0833V6.75Z" fill="#D0D5DD"/>
<path d="M12.4167 4.08333C12.4167 3.30836 12.4167 2.92087 12.3315 2.60295C12.1003 1.74022 11.4264 1.06635 10.5637 0.835185C10.2458 0.75 9.85831 0.75 9.08333 0.75C8.30836 0.75 7.92087 0.75 7.60295 0.835185C6.74022 1.06635 6.06635 1.74022 5.83519 2.60295C5.75 2.92087 5.75 3.30836 5.75 4.08333M3.41667 15.75H14.75C15.6834 15.75 16.1501 15.75 16.5067 15.5683C16.8203 15.4086 17.0752 15.1536 17.235 14.84C17.4167 14.4835 17.4167 14.0168 17.4167 13.0833V6.75C17.4167 5.81658 17.4167 5.34987 17.235 4.99335C17.0752 4.67975 16.8203 4.42478 16.5067 4.26499C16.1501 4.08333 15.6834 4.08333 14.75 4.08333H3.41667C2.48325 4.08333 2.01654 4.08333 1.66002 4.26499C1.34641 4.42478 1.09144 4.67975 0.931656 4.99335C0.75 5.34987 0.75 5.81658 0.75 6.75V13.0833C0.75 14.0168 0.75 14.4835 0.931656 14.84C1.09144 15.1536 1.34641 15.4086 1.66002 15.5683C2.01654 15.75 2.48325 15.75 3.41667 15.75Z" stroke="#98A2B3" stroke-width="1.5" stroke-linecap="round" stroke-linejoin="round"/>
</svg>
